<svg width="24" height="25" viewBox="0 0 24 25" fill="none" xmlns="http://www.w3.org/2000/svg">
<g clip-path="url(#clip0_1_50869)">
<path d="M12 2.49113C15.204 2.49113 15.584 2.50312 16.85 2.56113C20.102 2.70913 21.621 4.25213 21.769 7.48012C21.827 8.74512 21.838 9.12513 21.838 12.3291C21.838 15.5341 21.826 15.9131 21.769 17.1781C21.62 20.4031 20.105 21.9491 16.85 22.0971C15.584 22.1551 15.206 22.1671 12 22.1671C8.796 22.1671 8.416 22.1551 7.151 22.0971C3.891 21.9481 2.38 20.3981 2.232 17.1771C2.174 15.9121 2.162 15.5331 2.162 12.3281C2.162 9.12412 2.175 8.74512 2.232 7.47913C2.381 4.25213 3.896 2.70813 7.151 2.56013C8.417 2.50313 8.796 2.49113 12 2.49113ZM12 0.328125C8.741 0.328125 8.333 0.342125 7.053 0.400125C2.695 0.600125 0.273 3.01813 0.073 7.38013C0.014 8.66113 0 9.06913 0 12.3281C0 15.5871 0.014 15.9961 0.072 17.2761C0.272 21.6341 2.69 24.0561 7.052 24.2561C8.333 24.3141 8.741 24.3281 12 24.3281C15.259 24.3281 15.668 24.3141 16.948 24.2561C21.302 24.0561 23.73 21.6381 23.927 17.2761C23.986 15.9961 24 15.5871 24 12.3281C24 9.06913 23.986 8.66113 23.928 7.38112C23.732 3.02712 21.311 0.601125 16.949 0.401125C15.668 0.342125 15.259 0.328125 12 0.328125V0.328125ZM12 6.16612C8.597 6.16612 5.838 8.92513 5.838 12.3281C5.838 15.7311 8.597 18.4911 12 18.4911C15.403 18.4911 18.162 15.7321 18.162 12.3281C18.162 8.92513 15.403 6.16612 12 6.16612ZM12 16.3281C9.791 16.3281 8 14.5381 8 12.3281C8 10.1191 9.791 8.32812 12 8.32812C14.209 8.32812 16 10.1191 16 12.3281C16 14.5381 14.209 16.3281 12 16.3281ZM18.406 4.48313C17.61 4.48313 16.965 5.12812 16.965 5.92312C16.965 6.71812 17.61 7.36312 18.406 7.36312C19.201 7.36312 19.845 6.71812 19.845 5.92312C19.845 5.12812 19.201 4.48313 18.406 4.48313Z" fill="white"/>
</g>
<defs>
<clipPath id="clip0_1_50869">
<rect width="24" height="24" fill="white" transform="translate(0 0.328125)"/>
</clipPath>
</defs>
</svg>
