<svg width="24" height="25" viewBox="0 0 24 25" fill="none" xmlns="http://www.w3.org/2000/svg">
<g clip-path="url(#clip0_1_50877)">
<path d="M4.98 3.82812C4.98 5.20913 3.87 6.32812 2.5 6.32812C1.13 6.32812 0.02 5.20913 0.02 3.82812C0.02 2.44813 1.13 1.32812 2.5 1.32812C3.87 1.32812 4.98 2.44813 4.98 3.82812ZM5 8.32812H0V24.3281H5V8.32812ZM12.982 8.32812H8.014V24.3281H12.983V15.9291C12.983 11.2591 19.012 10.8771 19.012 15.9291V24.3281H24V14.1971C24 6.31713 15.078 6.60413 12.982 10.4831V8.32812Z" fill="white"/>
</g>
<defs>
<clipPath id="clip0_1_50877">
<rect width="24" height="24" fill="white" transform="translate(0 0.328125)"/>
</clipPath>
</defs>
</svg>
