<svg width="24" height="25" viewBox="0 0 24 25" fill="none" xmlns="http://www.w3.org/2000/svg">
<g clip-path="url(#clip0_1_50865)">
<path d="M24 4.88517C23.117 5.27717 22.168 5.54117 21.172 5.66017C22.189 5.05117 22.97 4.08617 23.337 2.93617C22.386 3.50017 21.332 3.91017 20.21 4.13117C19.313 3.17417 18.032 2.57617 16.616 2.57617C13.437 2.57617 11.101 5.54217 11.819 8.62117C7.728 8.41617 4.1 6.45617 1.671 3.47717C0.381 5.69017 1.002 8.58517 3.194 10.0512C2.388 10.0252 1.628 9.80417 0.965 9.43517C0.911 11.7162 2.546 13.8502 4.914 14.3252C4.221 14.5132 3.462 14.5572 2.69 14.4092C3.316 16.3652 5.134 17.7882 7.29 17.8282C5.22 19.4512 2.612 20.1762 0 19.8682C2.179 21.2652 4.768 22.0802 7.548 22.0802C16.69 22.0802 21.855 14.3592 21.543 7.43417C22.505 6.73917 23.34 5.87217 24 4.88517Z" fill="white"/>
</g>
<defs>
<clipPath id="clip0_1_50865">
<rect width="24" height="24" fill="white" transform="translate(0 0.328125)"/>
</clipPath>
</defs>
</svg>
